<?xml version="1.0" standalone="no"?>
<!DOCTYPE svg PUBLIC "-//W3C//DTD SVG 20010904//EN"
 "http://www.w3.org/TR/2001/REC-SVG-20010904/DTD/svg10.dtd">
<svg version="1.0" xmlns="http://www.w3.org/2000/svg"
 width="16.000000pt" height="16.000000pt" viewBox="0 0 16.000000 16.000000"
 preserveAspectRatio="xMidYMid meet">
<metadata>
Created by potrace 1.11, written by Peter Selinger 2001-2013
</metadata>
<g transform="translate(0.000000,16.000000) scale(0.005351,-0.005351)"
fill="#000000" stroke="none">
<path d="M1349 2786 c-3 -3 -25 -7 -49 -9 -149 -15 -351 -92 -482 -183 -188
-131 -322 -306 -390 -508 -16 -50 -32 -106 -34 -125 -3 -20 -7 -47 -9 -61 -7
-37 -7 -179 0 -225 23 -147 82 -353 137 -475 131 -292 284 -526 463 -706 172
-174 301 -248 450 -260 146 -12 312 72 485 246 104 104 113 114 196 225 193
262 358 627 409 905 13 72 14 287 2 356 -10 53 -55 182 -88 247 -101 200 -275
366 -492 467 -82 39 -217 82 -292 94 -51 9 -300 18 -306 12z m246 -301 c221
-32 428 -154 562 -330 87 -115 146 -285 147 -429 0 -56 -26 -86 -74 -86 -43 0
-61 29 -71 117 -23 187 -108 338 -253 447 -179 135 -414 179 -651 121 -94 -22
-239 -108 -316 -187 -109 -111 -160 -222 -179 -384 -9 -84 -28 -114 -70 -114
-15 0 -38 8 -51 19 -20 16 -23 27 -22 89 1 39 11 106 23 149 85 314 360 545
700 589 25 4 46 7 48 9 5 5 157 -2 207 -10z m315 -559 c0 -76 -117 -187 -247
-236 -32 -12 -88 -24 -125 -27 l-68 -6 0 -278 0 -277 -33 -43 c-18 -25 -55
-55 -86 -71 -47 -25 -64 -28 -148 -28 -103 0 -137 11 -172 56 -15 19 -21 41
-21 74 0 41 5 53 40 92 45 52 91 77 170 93 l55 11 5 284 c6 315 7 320 73 368
31 21 38 22 294 22 l263 0 0 -34z"/>
</g>
</svg>
